:SAMPLES-PER-SECOND 30
:FRAME-RANGE 1-3358
:FULLY-SPECIFIED
:DEGREES
1365
root  -59.3308 38.5505 -41.899 -1.02808 -25.218 3.56976
RightUpLeg  -13.8365 -3.92639 -8.38339
RightLeg  65.1812 -1.0518 -3.10934
RightFoot  -3.42742 -0.667677 9.29417
RightToes  -1.11029e-010 1.2921e-014 -6.02303e-014
Spine  -4.99338 0.929633 0.199158
Spine1  9.29014 1.9242 -6.69009
HEad  13.2971 18.9144 -3.31353
LeftShoulder1  0.72066 0.628117 -20.7428
LeftArm  -3.35312 9.27283 -48.9647
LeftForeArm  33.7603 0.165682 -12.0737
LeftHand  -0.0273529 5.30877 4.37955
RightShoulder  2.10272 3.44367 25.1179
RightArm  -1.06237 10.227 58.0817
RightForeArm  60.2231 10.1064 10.7724
RightHand  0.108177 -6.54653 -12.9256
LeftUpLeg  -15.4053 -6.28786 -10.1213
LeftLeg  22.3978 12.6463 6.19001
LeftFoot  -7.26743 -0.107525 4.25244
LeftToes  -1.90334e-010 -8.83595e-011 4.99953e-011
1366
root  -59.8139 38.6112 -41.0372 -1.05603 -21.9704 3.18036
RightUpLeg  -15.8689 -3.78579 -7.94679
RightLeg  61.8718 -2.09849 -4.78767
RightFoot  -6.93978 -0.406184 9.31832
RightToes  -1.11029e-010 1.2921e-014 -6.02303e-014
Spine  -5.12086 0.638293 -0.166519
Spine1  8.98514 1.53206 -6.4495
HEad  15.691 15.6902 -2.16784
LeftShoulder1  0.74623 0.507288 -20.4776
LeftArm  -3.32545 8.62943 -49.3514
LeftForeArm  33.0495 -0.644487 -12.0346
LeftHand  -0.0302802 5.22306 4.65089
RightShoulder  2.06476 3.35311 24.9616
RightArm  4.32683 10.4339 58.1353
RightForeArm  52.822 13.902 9.20511
RightHand  0.0555869 -6.08116 -12.6233
LeftUpLeg  -13.2922 -6.58788 -10.1652
LeftLeg  22.2692 10.1183 5.25139
LeftFoot  -8.80981 -0.0451414 4.4415
LeftToes  -1.90334e-010 -8.83595e-011 4.99953e-011
1367
root  -60.2825 38.7014 -40.1795 -0.974915 -18.3636 2.58142
RightUpLeg  -17.4864 -3.55153 -7.44651
RightLeg  56.7771 -4.99812 -8.58905
RightFoot  -8.64803 -0.284085 9.55658
RightToes  -1.11029e-010 1.2921e-014 -6.02303e-014
Spine  -5.2293 0.314837 -0.242968
Spine1  8.70933 1.17376 -6.06056
HEad  17.3008 11.8595 -1.03936
LeftShoulder1  0.763844 0.398859 -20.0615
LeftArm  -3.25567 7.67937 -49.8843
LeftForeArm  33.2294 -1.0791 -12.0029
LeftHand  -0.037835 5.01341 4.72014
RightShoulder  2.00191 3.19241 24.7465
RightArm  10.2362 10.9022 57.8034
RightForeArm  43.9774 17.8687 6.69366
RightHand  0.0228758 -5.79073 -12.1737
LeftUpLeg  -11.1173 -7.2609 -9.85057
LeftLeg  21.8718 7.65547 4.3003
LeftFoot  -10.0879 0.00966863 4.66374
LeftToes  -1.90334e-010 -8.83595e-011 4.99953e-011
1368
root  -60.7493 38.7707 -39.3464 -0.806824 -14.6572 1.98126
RightUpLeg  -19.0555 -2.94694 -7.28665
RightLeg  51.1882 -8.89617 -11.9985
RightFoot  -8.39175 -0.296175 9.26341
RightToes  -1.11029e-010 1.2921e-014 -6.02303e-014
Spine  -5.12025 0.0312031 -0.127649
Spine1  8.28421 0.93406 -5.83645
HEad  18.3198 7.53259 0.0604887
LeftShoulder1  0.798037 0.23272 -19.7317
LeftArm  -3.0756 6.77585 -50.2319
LeftForeArm  33.7098 -1.51092 -11.9801
LeftHand  -0.0331334 5.15045 4.93226
RightShoulder  1.94777 3.05771 24.5333
RightArm  13.7108 11.5272 57.0682
RightForeArm  36.7696 21.1705 4.31821
RightHand  0.0100817 -5.66098 -12.2902
LeftUpLeg  -9.26905 -8.54151 -9.28827
LeftLeg  21.7288 5.46072 3.4331
LeftFoot  -11.3743 0.0697038 4.46511
LeftToes  -1.90334e-010 -8.83595e-011 4.99953e-011
1369
root  -61.2222 38.7692 -38.531 -0.669312 -11.0289 1.65631
RightUpLeg  -20.5674 -1.53264 -8.10726
RightLeg  45.4279 -11.0134 -12.0197
RightFoot  -8.20927 -0.295531 8.74757
RightToes  -1.11029e-010 1.2921e-014 -6.02303e-014
Spine  -5.10508 -0.155873 -0.145391
Spine1  8.20484 0.869013 -5.91344
HEad  18.6651 2.99559 1.08988
LeftShoulder1  0.845537 0.0102132 -19.3972
LeftArm  -3.39457 5.99584 -50.4247
LeftForeArm  34.2132 -1.85198 -11.8135
LeftHand  -0.0440296 4.84674 4.77776
RightShoulder  1.90613 2.97699 24.2464
RightArm  12.4056 12.4273 55.9619
RightForeArm  34.069 23.7214 3.34539
RightHand  0.00116855 -5.57225 -12.3659
LeftUpLeg  -7.84448 -9.8035 -8.76755
LeftLeg  22.0981 3.40449 2.50089
LeftFoot  -12.7155 0.134252 4.81519
LeftToes  -1.90334e-010 -8.83595e-011 4.99953e-011
1370
root  -61.7169 38.6928 -37.7094 -0.625122 -7.46208 1.46472
RightUpLeg  -21.6786 0.692139 -9.71621
RightLeg  39.3379 -10.6814 -9.50391
RightFoot  -9.27194 -0.229972 9.21736
RightToes  -1.11029e-010 1.2921e-014 -6.02303e-014
Spine  -4.93065 -0.310705 -0.248824
Spine1  8.10268 0.847998 -6.18882
HEad  18.6927 -1.55244 1.95345
LeftShoulder1  0.884846 -0.13766 -19.4406
LeftArm  -3.24501 5.13445 -50.0938
LeftForeArm  33.9243 -1.69548 -11.8478
LeftHand  -0.0493509 4.73304 5.03012
RightShoulder  1.89571 3.02118 23.8492
RightArm  7.98278 13.4356 54.5415
RightForeArm  33.8017 25.5996 3.70164
RightHand  0.000205245 -5.57227 -11.9908
LeftUpLeg  -6.67468 -11.5329 -8.24079
LeftLeg  23.0779 1.89527 1.68807
LeftFoot  -14.417 0.222636 5.06044
LeftToes  -1.90334e-010 -8.83595e-011 4.99953e-011
1371
root  -62.2197 38.6021 -36.8578 -0.560913 -4.00159 1.3053
RightUpLeg  -22.3092 3.15258 -11.8187
RightLeg  32.8256 -9.06795 -6.48094
RightFoot  -10.3636 -0.149317 9.21089
RightToes  -1.11029e-010 1.2921e-014 -6.02303e-014
Spine  -4.80161 -0.404141 -0.211134
Spine1  8.03095 0.904708 -6.51558
HEad  18.77 -5.95242 2.49067
LeftShoulder1  0.899503 -0.172979 -19.6132
LeftArm  -3.21644 4.24054 -49.482
LeftForeArm  34.1734 -1.06411 -11.876
LeftHand  -0.0446785 4.86043 5.09875
RightShoulder  1.87244 3.00975 23.5158
RightArm  3.86419 14.3846 52.9276
RightForeArm  32.9166 27.0509 4.05641
RightHand  -0.00624838 -5.51039 -11.859
LeftUpLeg  -5.56749 -13.7609 -7.67664
LeftLeg  24.0808 0.888084 0.985465
LeftFoot  -16.1071 0.303501 4.96338
LeftToes  -1.90334e-010 -8.83595e-011 4.99953e-011
1372
root  -62.7179 38.5128 -35.9966 -0.240295 -0.507568 1.17212
RightUpLeg  -22.4911 5.04967 -14.182
RightLeg  25.6414 -7.27773 -4.00409
RightFoot  -10.7996 -0.119689 9.74034
RightToes  -1.11029e-010 1.2921e-014 -6.02303e-014
Spine  -4.75912 -0.515081 -0.0314139
Spine1  7.80148 0.924923 -6.70513
HEad  18.9793 -10.0343 2.69126
LeftShoulder1  0.891012 -0.121038 -19.7678
LeftArm  -3.4024 3.6201 -48.7512
LeftForeArm  34.3428 -0.254528 -11.82
LeftHand  -0.0337203 5.13955 5.08854
RightShoulder  1.83616 2.94885 23.2046
RightArm  0.208904 15.2443 51.0552
RightForeArm  32.8339 28.4533 4.36774
RightHand  -0.0196684 -5.37579 -11.711
LeftUpLeg  -4.73862 -15.6976 -6.94668
LeftLeg  24.8656 -0.506504 0.107124
LeftFoot  -17.528 0.376346 5.01096
LeftToes  -1.90334e-010 -8.83595e-011 4.99953e-011
1373
root  -63.2135 38.4368 -35.1002 0.12439 3.0946 1.00708
RightUpLeg  -21.9763 6.22245 -16.4447
RightLeg  18.1177 -6.08305 -2.42121
RightFoot  -10.3231 -0.162614 10.359
RightToes  -1.11029e-010 1.2921e-014 -6.02303e-014
Spine  -4.97863 -0.624067 0.366282
Spine1  7.93083 0.908047 -6.74057
HEad  19.119 -13.88 2.63794
LeftShoulder1  0.923993 -0.245343 -19.7883
LeftArm  -3.67432 3.35729 -47.9635
LeftForeArm  34.0177 0.656187 -11.7409
LeftHand  -0.0254415 5.34951 5.17274
RightShoulder  1.7667 2.78415 22.831
RightArm  -3.05381 15.9905 49.0656
RightForeArm  33.3722 29.9964 4.68646
RightHand  -0.0149873 -5.42926 -11.3054
LeftUpLeg  -3.83991 -17.4337 -6.06939
LeftLeg  25.3218 -2.15687 -0.753674
LeftFoot  -18.8814 0.455055 5.17934
LeftToes  -1.90334e-010 -8.83595e-011 4.99953e-011
1374
root  -63.7238 38.3327 -34.1472 0.570374 6.18102 1.1994
RightUpLeg  -21.294 4.09012 -17.5117
RightLeg  11.2247 -1.97109 -1.79011
RightFoot  -10.4453 -0.154954 10.6852
RightToes  -1.11029e-010 1.2921e-014 -6.02303e-014
Spine  -5.32606 -0.628214 0.602896
Spine1  8.10423 1.03693 -6.9639
HEad  19.3464 -16.9778 2.25263
LeftShoulder1  0.911538 -0.186801 -19.8734
LeftArm  -3.72432 3.49521 -46.7895
LeftForeArm  33.3564 1.32475 -11.7238
LeftHand  -0.03149 5.18458 4.44718
RightShoulder  1.73914 2.74431 22.5478
RightArm  -5.65486 16.6333 46.9998
RightForeArm  33.6861 31.4287 5.00153
RightHand  -0.0236268 -5.33934 -10.918
LeftUpLeg  -2.86182 -18.9398 -5.4317
LeftLeg  25.5018 -3.61119 -1.5193
LeftFoot  -20.2367 0.509937 4.98827
LeftToes  -1.90334e-010 -8.83595e-011 4.99953e-011
1375
root  -64.2532 38.1918 -33.1462 1.18793 8.82738 1.69147
RightUpLeg  -20.9089 -3.65169 -16.0813
RightLeg  5.65548 7.13503 -2.76781
RightFoot  -11.1807 -0.0936442 12.3754
RightToes  -1.11029e-010 1.2921e-014 -6.02303e-014
Spine  -5.96396 -0.557757 0.827504
Spine1  8.58607 1.2956 -7.40778
HEad  19.6052 -19.3373 1.56847
LeftShoulder1  0.87407 -0.0219049 -20.0522
LeftArm  -3.69851 3.7208 -45.2732
LeftForeArm  32.4167 2.00278 -11.7429
LeftHand  -0.0315962 5.18206 4.47576
RightShoulder  1.73213 2.82255 22.0363
RightArm  -7.43039 17.5728 45.1027
RightForeArm  33.3894 32.366 5.24069
RightHand  -0.020933 -5.36986 -10.8331
LeftUpLeg  -1.95178 -20.0749 -4.91838
LeftLeg  25.5561 -5.00318 -2.2485
LeftFoot  -21.5701 0.591693 5.15786
LeftToes  -1.90334e-010 -8.83595e-011 4.99953e-011
1376
root  -64.8253 38.0121 -32.1324 1.94641 10.6136 2.06537
RightUpLeg  -21.3834 -7.64437 -15.4044
RightLeg  2.48044 10.7169 -3.19864
RightFoot  -11.0275 -0.116636 15.0083
RightToes  -1.11029e-010 1.2921e-014 -6.02303e-014
Spine  -6.1969 -0.282559 1.68963
Spine1  8.54172 1.83938 -8.44843
HEad  19.8713 -20.6803 0.497859
LeftShoulder1  0.833258 0.183269 -20.5001
LeftArm  -3.63204 4.26834 -43.1905
LeftForeArm  31.6415 2.47246 -11.7568
LeftHand  -0.0251062 5.3849 4.12676
RightShoulder  1.69723 2.82468 21.4164
RightArm  -8.81613 18.7401 43.9284
RightForeArm  34.0892 32.8499 5.31891
RightHand  -0.0219479 -5.3578 -10.9313
LeftUpLeg  -1.24945 -20.7522 -4.06701
LeftLeg  25.6733 -6.17414 -2.87197
LeftFoot  -23.0566 0.645583 4.9374
LeftToes  -1.90334e-010 -8.83595e-011 4.99953e-011
1377
root  -65.4391 37.8092 -31.1302 2.64825 11.5743 2.67242
RightUpLeg  -22.5016 -7.87722 -15.4944
RightLeg  2.76732 9.16579 -2.9487
RightFoot  -10.8322 -0.143665 15.5885
RightToes  -1.11029e-010 1.2921e-014 -6.02303e-014
Spine  -5.78502 0.155591 2.43232
Spine1  8.32416 2.50625 -9.32174
HEad  19.5038 -20.7701 -1.1531
LeftShoulder1  0.814324 0.336609 -21.2904
LeftArm  -3.43591 4.83101 -40.734
LeftForeArm  30.2889 3.03591 -11.8211
LeftHand  -0.0206896 5.5352 4.04137
RightShoulder  1.72093 3.10761 20.5101
RightArm  -9.64135 20.3586 42.9607
RightForeArm  34.2732 33.1116 5.3724
RightHand  -0.00837427 -5.50713 -10.9551
LeftUpLeg  -0.396385 -20.7963 -3.39342
LeftLeg  25.6488 -7.15627 -3.37911
LeftFoot  -24.3625 0.663015 4.5226
LeftToes  -1.90334e-010 -8.83595e-011 4.99953e-011
1378
root  -66.0902 37.6186 -30.1025 3.26776 11.768 3.36554
RightUpLeg  -23.609 -6.47012 -15.5348
RightLeg  4.90062 4.77147 -2.36153
RightFoot  -10.3057 -0.199176 14.1846
RightToes  -1.11029e-010 1.2921e-014 -6.02303e-014
Spine  -5.27024 0.555413 3.33123
Spine1  8.63937 3.20599 -10.4148
HEad  17.8652 -19.8583 -2.83526
LeftShoulder1  0.765422 0.588498 -22.0799
LeftArm  -3.15833 5.62486 -38.3316
LeftForeArm  29.1224 3.4912 -11.9044
LeftHand  -0.0148998 5.72689 4.05231
RightShoulder  1.75323 3.51687 19.2954
RightArm  -9.55747 23.034 42.8533
RightForeArm  34.3648 32.5503 5.23131
RightHand  0.00198718 -5.60602 -11.4364
LeftUpLeg  0.695809 -20.481 -2.81862
LeftLeg  25.4542 -7.97766 -3.77062
LeftFoot  -25.2494 0.589773 3.58862
LeftToes  -1.90334e-010 -8.83595e-011 4.99953e-011
